<?xml version="1.0" encoding="UTF-8"?>
<svg viewBox="0 0 697 697" xmlns="http://www.w3.org/2000/svg" xmlns:xlink="http://www.w3.org/1999/xlink">
 <defs>
  <filter id="j">
   <feGaussianBlur stdDeviation="7.2324"/>
  </filter>
  <filter id="k" x="-.10676" y="-.10676" width="1.2135" height="1.2135">
   <feGaussianBlur stdDeviation="25.54581"/>
  </filter>
  <filter id="i" x="-.07825" y="-.11952" width="1.1565" height="1.239">
   <feGaussianBlur stdDeviation="14.16288"/>
  </filter>
  <linearGradient id="a">
   <stop stop-color="#08f" offset="0"/>
   <stop stop-color="#1e2862" offset="1"/>
  </linearGradient>
  <linearGradient id="b" x2="0" y1="167.17" y2="513.01" gradientUnits="userSpaceOnUse">
   <stop stop-color="#eee" offset="0"/>
   <stop stop-color="#aec6d7" offset="1"/>
  </linearGradient>
  <linearGradient id="h" x1="387.21" x2="234.77" y1="319.42" y2="296.67" gradientUnits="userSpaceOnUse" xlink:href="#a"/>
  <radialGradient id="g" cx="359.86" cy="603.3" r="287.14" gradientTransform="matrix(1.9874 -.32079 .19084 1.1823 -486.21 -22.476)" gradientUnits="userSpaceOnUse">
   <stop stop-color="#fff" offset="0"/>
   <stop stop-color="#fff" stop-opacity="0" offset="1"/>
  </radialGradient>
  <radialGradient id="f" cx="500.23" cy="869.06" r="217.18" gradientTransform="matrix(2.1042 -1.4029 .46183 .6927 -953.73 918.91)" gradientUnits="userSpaceOnUse">
   <stop offset="0"/>
   <stop stop-opacity="0" offset="1"/>
  </radialGradient>
  <radialGradient id="c" cx="317.34" cy="633.94" r="287.14" gradientTransform="matrix(1.7192 -.27854 .23847 1.4718 -502.65 -249.53)" gradientUnits="userSpaceOnUse" xlink:href="#a"/>
  <radialGradient id="d" cx="272.22" cy="332.6" r="287.14" gradientUnits="userSpaceOnUse" xlink:href="#a"/>
  <radialGradient id="e" cx="596.63" cy="788.8" r="289.32" gradientUnits="userSpaceOnUse" xlink:href="#a"/>
 </defs>
 <g transform="translate(7.0446 9.1244)">
  <path transform="translate(-71.449 -240.08)" d="m700 579.51c0 158.58-128.56 287.14-287.14 287.14s-287.14-128.56-287.14-287.14 128.56-287.14 287.14-287.14 287.14 128.56 287.14 287.14z" filter="url(#k)"/>
  <path transform="translate(-82.449 -258.08)" d="m700 579.51c0 158.58-128.56 287.14-287.14 287.14s-287.14-128.56-287.14-287.14 128.56-287.14 287.14-287.14 287.14 128.56 287.14 287.14z" fill="url(#c)" stroke="url(#d)" stroke-linecap="round" stroke-linejoin="round" stroke-width="5"/>
  <path transform="matrix(.91837 0 0 .91837 -48.746 -210.78)" d="m700 579.51c0 158.58-128.56 287.14-287.14 287.14s-287.14-128.56-287.14-287.14 128.56-287.14 287.14-287.14 287.14 128.56 287.14 287.14z" fill="none" stroke="url(#e)" stroke-linecap="round" stroke-linejoin="round" stroke-width="5.4444"/>
  <path d="m369.97 120.31c-29.192 0.46811-53.401 33.944-41.969 61.469 9.6614 18.626 37.372 19.12 51.5 5.5312 17.191-12.273 25.888-39.228 12.188-57.219-5.3362-6.178-13.438-10.192-21.719-9.7812zm-18.438 120.78c-36.547 6.4677-65.701 31.377-96.281 50.531-9.8033 9.035-2.4682 29.893 11.75 27.656 10.219-2.6455 17.376-11.42 26.875-15.75 3.9747-2.2471 8.2718-3.9978 12.781-4.7812 0.80328 11.356-5.0838 21.814-6.75 32.906-13.331 50.121-32.176 98.926-40.969 150.16-1.591 14.983 5.8453 33.19 22.094 36.094 20.133 3.8329 37.752-9.9487 53.874-19.898 15.893-10.429 32.729-20.325 45.72-34.352 6.5458-11.379-7.9979-28.817-20.125-20.969-11.717 7.2668-22.571 17.714-36.438 20.5 5.6494-35.273 17.231-69.37 26.625-103.81 8.244-29.224 18.25-58.285 22.031-88.5 1.745-13.544-5.5239-30.094-21.188-29.781z" fill="#036" fill-rule="evenodd" stroke="url(#h)" stroke-linecap="round" stroke-linejoin="round" stroke-width="32"/>
  <path d="m275.32 451.69 8.9257-30.518 24.884-85.143c5.4095-17.439 8.0241-29.834 7.8438-37.186-0.18039-7.5224-3.1556-11.284-8.9257-11.284-2.8852 2.2e-4 -8.0242 1.8809-15.417 5.642-7.2128 3.7615-16.77 9.489-28.67 17.182l-4.0571-10.002c22.72-15.729 42.014-27.868 57.882-36.416s26.957-12.822 33.269-12.823c6.852 2.6e-4 10.729 4.1035 11.63 12.31 1.0818 8.2068-0.81156 20.517-5.68 36.929l-21.638 75.654-15.688 56.933c-4.1474 15.558-6.1309 26.415-5.9505 32.57 0.18025 5.984 2.6145 8.9759 7.3029 8.9759 3.9669 3e-5 9.8272-2.0516 17.581-6.1549 7.9339-4.1032 17.761-10.344 29.482-18.721l4.8686 9.4888c-20.917 15.9-38.678 28.21-53.284 36.929-14.425 8.5484-24.613 12.823-30.564 12.823-10.278 0-16.679-4.7871-19.204-14.361l-1.0819-9.2323c-2e-5 -8.5484 2.1638-19.747 6.4914-33.595m94.667-321.34c7.0322 3.7e-4 12.261 2.8214 15.688 8.463 3.4259 5.4714 4.057 12.054 1.8933 19.747-2.3443 7.694-6.8522 14.362-13.524 20.003-6.6719 5.4713-13.524 8.2068-20.556 8.2065s-12.262-2.7352-15.688-8.2065c-3.4261-5.6416-3.9671-12.309-1.6229-20.003 2.1637-7.6933 6.5815-14.276 13.253-19.747 6.6716-5.6416 13.524-8.4626 20.556-8.463" fill="url(#b)" fill-rule="evenodd" stroke="url(#b)" stroke-linecap="round" stroke-linejoin="round" stroke-width="32"/>
  <path transform="translate(-82.449 -258.08)" d="m673.37 582.76c-165.91 17.727-216.69-24.732-349.58 51.053-61.601 35.13-119.16 47.249-151.33 49.463-13.737-37.152-21.594-20.547-33.986-14.715-8.605-18.603-12.755-47.497-12.755-89.051 0-158.5 128.64-287.14 287.14-287.14 105.1 0 197.06 56.556 247.11 140.87 21.814 36.754 35.662 78.782 39.16 123.7-9.4152-2.0579-27.069-8.7004-25.759 25.82z" fill="url(#g)" filter="url(#j)" opacity=".49533"/>
  <path transform="translate(-82.449 -258.08)" d="m699.61 594.54c-7.8281 151.52-133.3 272.11-286.76 272.11-53.966 0-104.47-14.912-147.61-40.838 16.638 5.8804 34.788-6.0324 7.7523-25.668 45.466-6.9287 133.35-20.693 204.31-70.569 111.54-78.405 132.92-138.92 196.81-147.32-2.2565 44.289 23.879 15.505 25.499 12.288z" fill="url(#f)" filter="url(#i)" opacity=".18719"/>
 </g>
</svg>
