<?xml version="1.0" encoding="UTF-8"?>
<svg viewBox="0 0 166.37231 168.47308" xmlns="http://www.w3.org/2000/svg">
 <defs>
  <linearGradient id="a" x1="379.92" x2="387.75" y1="-298.54" y2="-148.13" gradientUnits="userSpaceOnUse">
   <stop stop-color="#0146a8" offset="0"/>
   <stop stop-color="#0146a8" stop-opacity="0" offset="1"/>
  </linearGradient>
  <linearGradient id="b" x1="381.89" x2="387.75" y1="-310.05" y2="-147.97" gradientTransform="matrix(.93571 0 0 .97143 387.17 670.23)" gradientUnits="userSpaceOnUse">
   <stop stop-color="#edf4fd" stop-opacity=".52846" offset="0"/>
   <stop stop-color="#175bb3" stop-opacity="0" offset="1"/>
  </linearGradient>
 </defs>
 <g transform="matrix(.75853 0 0 .75853 -485.71 -269.5)">
  <path transform="matrix(1 0 0 1.0126 362.25 677.43)" d="m497.42-208.45c0 60.568-49.1 109.67-109.67 109.67s-109.67-49.1-109.67-109.67 49.1-109.67 109.67-109.67 109.67 49.1 109.67 109.67z" fill="#103683"/>
  <path transform="matrix(.93571 0 0 .97143 387.17 670.23)" d="m497.42-208.45c0 60.568-49.1 109.67-109.67 109.67s-109.67-49.1-109.67-109.67 49.1-109.67 109.67-109.67 109.67 49.1 109.67 109.67z" fill="url(#a)"/>
  <g transform="matrix(2.0388 0 0 1.2724 -703.44 -128.89)" fill="#eee" font-family="Arial Rounded MT Bold" font-size="40" font-weight="bold">
   <path d="m721.49 450.79v55.477c-3e-5 3.8438-0.91409 6.75-2.7422 8.7188s-4.1485 2.9531-6.9609 2.9531-5.1094-1.0078-6.8906-3.0234c-1.7344-2.0156-2.6016-4.8984-2.6016-8.6484v-54.914c-1e-5 -3.7968 0.86717-6.6562 2.6016-8.5781 1.7812-1.9218 4.0781-2.8827 6.8906-2.8828s5.1328 0.96101 6.9609 2.8828 2.7422 4.5938 2.7422 8.0156m-9.4922-19.828c-2.6719 9e-5 -4.9688-0.82022-6.8906-2.4609-1.875-1.6405-2.8125-3.9608-2.8125-6.9609-1e-5 -2.7186 0.96092-4.9452 2.8828-6.6797 1.9687-1.7812 4.2422-2.6718 6.8203-2.6719 2.4844 1e-4 4.6875 0.79697 6.6094 2.3906s2.8828 3.9142 2.8828 6.9609c-3e-5 2.9532-0.93753 5.2735-2.8125 6.9609-1.875 1.6407-4.1016 2.461-6.6797 2.4609" fill="#eee"/>
  </g>
  <path d="m750 361.18c-56.674 0-102.62 47.725-102.62 106.56 0 3.7524 0.1979 7.4415 0.5625 11.094 50.067 18.726 126.58 32.369 204.69-10.594 7.4e-4 -0.16695 0-0.33287 0-0.5 0-58.837-45.951-106.56-102.62-106.56z" fill="url(#b)"/>
 </g>
</svg>
