<svg version="1.1" viewBox="0.0 0.0 1023.0 701.0" fill="none" stroke="none" stroke-linecap="square" stroke-miterlimit="10" width="1023" height="701" xmlns:xlink="http://www.w3.org/1999/xlink" xmlns="http://www.w3.org/2000/svg"><path fill="#ffffff" d="M0 0L1023.0 0L1023.0 701.0L0 701.0L0 0Z" fill-rule="nonzero"/><path fill="#71c287" d="M503.57272 106.095985C506.21463 106.0495 508.85727 106.02625 511.5 106.02625L511.5 326.84125Z" fill-rule="nonzero"/><path fill="#fcd04f" d="M493.67123 106.37921C496.9694 106.24852 500.2703 106.1541 503.57272 106.095985L511.5 326.84125Z" fill-rule="nonzero"/><path fill="#f07b72" d="M468.03406 108.13251C476.5421 107.30398 485.09497 106.719055 493.67123 106.37921L511.5 326.84125Z" fill-rule="nonzero"/><path fill="#2056ad" d="M440.75378 111.6511C449.7691 110.19879 458.87134 109.024796 468.03406 108.13251L511.5 326.84125Z" fill-rule="nonzero"/><path fill="#38761d" d="M399.0699 120.527405C412.65564 116.89967 426.5835 113.93383 440.75378 111.6511L511.5 326.84125Z" fill-rule="nonzero"/><path fill="#ff6d01" d="M357.79694 134.0118C371.07245 128.82672 384.86603 124.320175 399.0699 120.527405L511.5 326.84125Z" fill-rule="nonzero"/><path fill="#9900ff" d="M318.15848 152.36317C330.6933 145.55707 343.94373 139.42253 357.79694 134.0118L511.5 326.84125Z" fill-rule="nonzero"/><path fill="#ff0000" d="M258.6457 194.81487C275.65753 178.85031 295.67667 164.57024 318.15848 152.36317L511.5 326.84125Z" fill-rule="nonzero"/><path fill="#b34c01" d="M287.04608 529.3144C228.74303 487.98618 196.05 432.2419 196.05 374.15875L196.05 326.84125C196.05 384.9244 228.74303 440.66867 287.04608 481.99692Z" fill-rule="nonzero"/><path fill="#ff6d01" d="M287.04608 481.99692C177.4899 404.33777 165.4212 282.3003 258.6457 194.81487L511.5 326.84125Z" fill-rule="nonzero"/><path fill="#2e5dab" d="M826.95 374.15875C826.95 463.72266 749.6635 544.41516 631.30133 578.4297C512.93915 612.44415 376.94904 593.0423 287.04608 529.3144L287.04608 481.99692C376.94904 545.7248 512.93915 565.12665 631.30133 531.1122C749.6635 497.0977 826.95 416.40515 826.95 326.84125Z" fill-rule="nonzero"/><path fill="#4285f4" d="M511.5 106.02625C654.5201 106.02625 779.6447 173.38014 816.37164 270.13696C853.0986 366.8938 792.2368 468.84003 668.0793 518.53345C543.9218 568.22687 387.53915 553.2316 287.04608 481.99692L511.5 326.84125Z" fill-rule="nonzero"/><path fill="#1a1a1a" d="M36.39375 42.159374L46.2375 42.159374L46.2375 44.940624L40.378124 44.940624L40.378124 47.190624L45.378124 47.190624L45.378124 49.784374L40.378124 49.784374L40.378124 55.05L36.39375 55.05L36.39375 42.159374ZM51.39375 48.7375L47.971874 48.378124Q48.159374 47.4875 48.51875 46.971874Q48.89375 46.45625 49.58125 46.08125Q50.08125 45.8 50.940624 45.659374Q51.8 45.503124 52.8 45.503124Q54.409374 45.503124 55.378124 45.690624Q56.3625 45.8625 57.003124 46.440624Q57.471874 46.83125 57.721874 47.565624Q57.9875 48.284374 57.9875 48.940624L57.9875 53.065624Q57.9875 53.721874 58.065624 54.096874Q58.159374 54.471874 58.440624 55.05L55.08125 55.05Q54.878124 54.690624 54.815624 54.503124Q54.753124 54.315624 54.690624 53.909374Q53.9875 54.58125 53.3 54.878124Q52.346874 55.26875 51.096874 55.26875Q49.425 55.26875 48.55 54.4875Q47.690624 53.70625 47.690624 52.58125Q47.690624 51.51875 48.315624 50.83125Q48.940624 50.14375 50.6125 49.815624Q52.628124 49.409374 53.221874 49.253124Q53.83125 49.08125 54.4875 48.815624Q54.4875 48.159374 54.221874 47.89375Q53.95625 47.628124 53.26875 47.628124Q52.378124 47.628124 51.940624 47.909374Q51.596874 48.128124 51.39375 48.7375ZM54.4875 50.6125Q53.753124 50.878124 52.95625 51.08125Q51.8625 51.378124 51.58125 51.659374Q51.284374 51.940624 51.284374 52.315624Q51.284374 52.7375 51.565624 53.003124Q51.8625 53.26875 52.440624 53.26875Q53.034374 53.26875 53.55 52.9875Q54.065624 52.690624 54.26875 52.284374Q54.4875 51.8625 54.4875 51.190624L54.4875 50.6125ZM67.09688 51.409374L70.4875 51.784374Q70.20625 52.846874 69.56563 53.628124Q68.925 54.409374 67.925 54.846874Q66.94063 55.26875 65.39375 55.26875Q63.909374 55.26875 62.925 55.003124Q61.940624 54.721874 61.221874 54.096874Q60.503124 53.471874 60.096874 52.64375Q59.70625 51.8 59.70625 50.425Q59.70625 48.9875 60.190624 48.034374Q60.55 47.33125 61.175 46.76875Q61.8 46.20625 62.45625 45.940624Q63.503124 45.503124 65.14375 45.503124Q67.425 45.503124 68.62813 46.33125Q69.83125 47.14375 70.31563 48.70625L66.94063 49.159374Q66.78438 48.565624 66.3625 48.26875Q65.95625 47.95625 65.25313 47.95625Q64.3625 47.95625 63.8 48.596874Q63.253124 49.2375 63.253124 50.51875Q63.253124 51.675 63.8 52.26875Q64.34688 52.8625 65.19063 52.8625Q65.89375 52.8625 66.37813 52.503124Q66.8625 52.14375 67.09688 51.409374ZM82.4875 51.26875L75.31563 51.26875Q75.425 52.128124 75.78438 52.55Q76.3 53.159374 77.14375 53.159374Q77.675 53.159374 78.14375 52.89375Q78.44063 52.721874 78.76875 52.3L82.28438 52.628124Q81.4875 54.034374 80.33125 54.659374Q79.19063 55.26875 77.06563 55.26875Q75.20625 55.26875 74.14375 54.753124Q73.08125 54.221874 72.37813 53.08125Q71.69063 51.940624 71.69063 50.39375Q71.69063 48.20625 73.08125 46.8625Q74.4875 45.503124 76.95625 45.503124Q78.95625 45.503124 80.1125 46.1125Q81.28438 46.721874 81.87813 47.878124Q82.4875 49.01875 82.4875 50.8625L82.4875 51.26875ZM78.8625 49.55Q78.75313 48.51875 78.3 48.08125Q77.84688 47.628124 77.1125 47.628124Q76.25313 47.628124 75.7375 48.3Q75.425 48.721874 75.33125 49.55L78.8625 49.55ZM84.14375 42.159374L87.76875 42.159374L87.76875 46.628124Q88.3 46.065624 88.97188 45.784374Q89.65938 45.503124 90.4875 45.503124Q92.19063 45.503124 93.3 46.7375Q94.425 47.95625 94.425 50.253124Q94.425 51.784374 93.90938 52.95625Q93.40938 54.1125 92.50313 54.690624Q91.59688 55.26875 90.50313 55.26875Q89.56563 55.26875 88.78438 54.8625Q88.19063 54.534374 87.50313 53.675L87.50313 55.05L84.14375 55.05L84.14375 42.159374ZM87.7375 50.3625Q87.7375 51.565624 88.19063 52.1125Q88.64375 52.64375 89.33125 52.64375Q89.97188 52.64375 90.40938 52.1125Q90.84688 51.58125 90.84688 50.315624Q90.84688 49.20625 90.40938 48.690624Q89.9875 48.175 89.39375 48.175Q88.65938 48.175 88.19063 48.721874Q87.7375 49.253124 87.7375 50.3625ZM95.69063 50.409374Q95.69063 48.26875 97.12813 46.89375Q98.58125 45.503124 101.03438 45.503124Q103.83125 45.503124 105.26875 47.128124Q106.40938 48.440624 106.40938 50.3625Q106.40938 52.503124 104.9875 53.89375Q103.56563 55.26875 101.03438 55.26875Q98.78438 55.26875 97.39375 54.1125Q95.69063 52.70625 95.69063 50.409374ZM99.28438 50.39375Q99.28438 51.64375 99.78438 52.253124Q100.28438 52.846874 101.05 52.846874Q101.83125 52.846874 102.31563 52.253124Q102.81563 51.659374 102.81563 50.3625Q102.81563 49.159374 102.31563 48.565624Q101.81563 47.971874 101.08125 47.971874Q100.3 47.971874 99.78438 48.58125Q99.28438 49.175 99.28438 50.39375ZM107.69063 50.409374Q107.69063 48.26875 109.12813 46.89375Q110.58125 45.503124 113.03438 45.503124Q115.83125 45.503124 117.26875 47.128124Q118.40938 48.440624 118.40938 50.3625Q118.40938 52.503124 116.9875 53.89375Q115.56563 55.26875 113.03438 55.26875Q110.78438 55.26875 109.39375 54.1125Q107.69063 52.70625 107.69063 50.409374ZM111.28438 50.39375Q111.28438 51.64375 111.78438 52.253124Q112.28438 52.846874 113.05 52.846874Q113.83125 52.846874 114.31563 52.253124Q114.81563 51.659374 114.81563 50.3625Q114.81563 49.159374 114.31563 48.565624Q113.81563 47.971874 113.08125 47.971874Q112.3 47.971874 111.78438 48.58125Q111.28438 49.175 111.28438 50.39375ZM120.12813 42.159374L123.78438 42.159374L123.78438 48.815624L126.45625 45.721874L130.8625 45.721874L127.51875 48.9875L131.05 55.05L127.01875 55.05L125.12813 51.3L123.78438 52.628124L123.78438 55.05L120.12813 55.05L120.12813 42.159374Z" fill-rule="nonzero"/><path fill="#9e9e9e" d="M43.89375 70.94063L43.89375 84.05L40.284374 84.05L40.284374 75.45625Q39.39375 76.12813 38.565624 76.55Q37.753124 76.95625 36.51875 77.33125L36.51875 74.39375Q38.346874 73.81563 39.346874 72.9875Q40.3625 72.15938 40.940624 70.94063L43.89375 70.94063ZM48.14375 80.50313L51.95625 80.50313L51.95625 83.44063Q51.95625 85.06563 51.284374 86.00313Q50.6125 86.95625 48.971874 87.675L48.14375 86.1125Q49.159374 85.62813 49.534374 85.15938Q49.925 84.69063 49.971874 84.05L48.14375 84.05L48.14375 80.50313ZM59.940624 81.64375L53.425 81.64375L53.425 78.69063L59.940624 70.94063L63.065624 70.94063L63.065624 78.8625L64.675 78.8625L64.675 81.64375L63.065624 81.64375L63.065624 84.05L59.940624 84.05L59.940624 81.64375ZM59.940624 78.8625L59.940624 74.81563L56.503124 78.8625L59.940624 78.8625ZM76.8625 70.94063L78.72188 70.94063L71.26875 84.70625L69.44063 84.70625L76.8625 70.94063ZM65.925 74.33125Q65.925 73.425 66.31563 72.62813Q66.70625 71.81563 67.50313 71.37813Q68.31563 70.94063 69.40938 70.94063Q71.03438 70.94063 71.95625 71.8625Q72.89375 72.78438 72.89375 74.33125Q72.89375 75.87813 71.95625 76.8Q71.03438 77.72188 69.40938 77.72188Q68.31563 77.72188 67.50313 77.28438Q66.70625 76.84688 66.31563 76.05Q65.925 75.2375 65.925 74.33125ZM68.39375 74.34688Q68.39375 75.44063 68.7375 75.925Q68.97188 76.25313 69.40938 76.25313Q69.84688 76.25313 70.06563 75.925Q70.425 75.44063 70.425 74.34688Q70.425 73.26875 70.06563 72.76875Q69.84688 72.44063 69.40938 72.44063Q68.97188 72.44063 68.7375 72.76875Q68.39375 73.25313 68.39375 74.34688ZM75.20625 81.3Q75.20625 80.39375 75.59688 79.59688Q75.9875 78.78438 76.78438 78.34688Q77.59688 77.90938 78.69063 77.90938Q80.31563 77.90938 81.2375 78.83125Q82.175 79.75313 82.175 81.3Q82.175 82.83125 81.2375 83.76875Q80.31563 84.69063 78.69063 84.69063Q77.59688 84.69063 76.78438 84.25313Q75.9875 83.81563 75.59688 83.01875Q75.20625 82.20625 75.20625 81.3ZM77.675 81.31563Q77.675 82.40938 78.03438 82.89375Q78.25313 83.22188 78.69063 83.22188Q79.12813 83.22188 79.3625 82.89375Q79.70625 82.40938 79.70625 81.31563Q79.70625 80.22188 79.3625 79.72188Q79.12813 79.40938 78.69063 79.40938Q78.25313 79.40938 78.03438 79.7375Q77.675 80.22188 77.675 81.31563Z" fill-rule="nonzero"/><path stroke="#757575" stroke-width="1.0" stroke-linecap="butt" d="M35.05 62.55L190.05 62.55L457.19672 120.53977" fill-rule="nonzero"/><path fill="#9e9e9e" d="M459.19672 120.53977C459.19672 119.4352 458.30127 118.53977 457.19672 118.53977C456.09213 118.53977 455.19672 119.4352 455.19672 120.53977C455.19672 121.64434 456.09213 122.53977 457.19672 122.53977C458.30127 122.53977 459.19672 121.64434 459.19672 120.53977" fill-rule="nonzero"/><path fill="#1a1a1a" d="M36.378124 97.15938L43.83125 97.15938Q45.690624 97.15938 46.690624 98.08125Q47.690624 99.00313 47.690624 100.37813Q47.690624 101.51875 46.971874 102.33125Q46.503124 102.87813 45.58125 103.19063Q46.971874 103.53438 47.628124 104.34688Q48.284374 105.15938 48.284374 106.37813Q48.284374 107.39375 47.815624 108.19063Q47.3625 108.9875 46.55 109.45625Q46.05 109.7375 45.034374 109.87813Q43.690624 110.05 43.253124 110.05L36.378124 110.05L36.378124 97.15938ZM40.39375 102.22188L42.128124 102.22188Q43.05 102.22188 43.409374 101.90938Q43.784374 101.58125 43.784374 100.97188Q43.784374 100.40938 43.409374 100.09688Q43.05 99.76875 42.159374 99.76875L40.39375 99.76875L40.39375 102.22188ZM40.39375 107.28438L42.425 107.28438Q43.45625 107.28438 43.878124 106.925Q44.3 106.55 44.3 105.94063Q44.3 105.3625 43.878124 105.01875Q43.45625 104.675 42.409374 104.675L40.39375 104.675L40.39375 107.28438ZM50.26875 97.15938L53.846874 97.15938L53.846874 99.59688L50.26875 99.59688L50.26875 97.15938ZM50.26875 100.72188L53.846874 100.72188L53.846874 110.05L50.26875 110.05L50.26875 100.72188ZM56.128124 100.72188L59.45625 100.72188L59.45625 102.2375Q60.20625 101.3 60.971874 100.90938Q61.7375 100.50313 62.83125 100.50313Q64.31563 100.50313 65.15938 101.39375Q66.00313 102.26875 66.00313 104.1125L66.00313 110.05L62.409374 110.05L62.409374 104.90938Q62.409374 104.03438 62.08125 103.675Q61.753124 103.31563 61.175 103.31563Q60.51875 103.31563 60.1125 103.81563Q59.70625 104.3 59.70625 105.56563L59.70625 110.05L56.128124 110.05L56.128124 100.72188ZM74.62813 100.72188L77.97188 100.72188L77.97188 109.53438L77.9875 109.94063Q77.9875 110.83125 77.6125 111.6125Q77.2375 112.40938 76.6125 112.89375Q76.00313 113.39375 75.05 113.6125Q74.09688 113.83125 72.8625 113.83125Q70.05 113.83125 68.9875 112.9875Q67.94063 112.14375 67.94063 110.7375Q67.94063 110.56563 67.97188 110.26875L71.44063 110.65938Q71.56563 111.14375 71.84688 111.33125Q72.2375 111.59688 72.83125 111.59688Q73.6125 111.59688 73.9875 111.175Q74.37813 110.76875 74.37813 109.7375L74.37813 108.33125Q73.84688 108.95625 73.31563 109.2375Q72.4875 109.675 71.53438 109.675Q69.65938 109.675 68.50313 108.03438Q67.69063 106.87813 67.69063 104.97188Q67.69063 102.78438 68.7375 101.64375Q69.8 100.50313 71.50313 100.50313Q72.59688 100.50313 73.3 100.87813Q74.01875 101.2375 74.62813 102.09688L74.62813 100.72188ZM71.25313 105.2375Q71.25313 106.25313 71.69063 106.7375Q72.12813 107.22188 72.83125 107.22188Q73.4875 107.22188 73.94063 106.72188Q74.39375 106.22188 74.39375 105.19063Q74.39375 104.175 73.925 103.64375Q73.45625 103.09688 72.76875 103.09688Q72.08125 103.09688 71.65938 103.59688Q71.25313 104.09688 71.25313 105.2375Z" fill-rule="nonzero"/><path fill="#9e9e9e" d="M46.26875 139.05L35.51875 139.05Q35.70625 137.45625 36.64375 136.06563Q37.58125 134.65938 40.159374 132.75313Q41.7375 131.58125 42.175 130.97188Q42.6125 130.3625 42.6125 129.81563Q42.6125 129.2375 42.175 128.81563Q41.7375 128.39375 41.08125 128.39375Q40.39375 128.39375 39.95625 128.83125Q39.51875 129.25313 39.378124 130.34688L35.784374 130.06563Q36.003124 128.55 36.565624 127.70625Q37.128124 126.84688 38.14375 126.39375Q39.175 125.94063 40.9875 125.94063Q42.878124 125.94063 43.925 126.37813Q44.971874 126.8 45.565624 127.70625Q46.175 128.59688 46.175 129.69063Q46.175 130.87813 45.4875 131.95625Q44.8 133.01875 42.971874 134.3Q41.89375 135.05 41.534374 135.34688Q41.175 135.64375 40.675 136.12813L46.26875 136.12813L46.26875 139.05ZM48.14375 135.50313L51.95625 135.50313L51.95625 138.44063Q51.95625 140.06563 51.284374 141.00313Q50.6125 141.95625 48.971874 142.675L48.14375 141.1125Q49.159374 140.62813 49.534374 140.15938Q49.925 139.69063 49.971874 139.05L48.14375 139.05L48.14375 135.50313ZM64.26875 139.05L53.51875 139.05Q53.70625 137.45625 54.64375 136.06563Q55.58125 134.65938 58.159374 132.75313Q59.7375 131.58125 60.175 130.97188Q60.6125 130.3625 60.6125 129.81563Q60.6125 129.2375 60.175 128.81563Q59.7375 128.39375 59.08125 128.39375Q58.39375 128.39375 57.95625 128.83125Q57.51875 129.25313 57.378124 130.34688L53.784374 130.06563Q54.003124 128.55 54.565624 127.70625Q55.128124 126.84688 56.14375 126.39375Q57.175 125.94063 58.9875 125.94063Q60.878124 125.94063 61.925 126.37813Q62.971874 126.8 63.565624 127.70625Q64.175 128.59688 64.175 129.69063Q64.175 130.87813 63.4875 131.95625Q62.8 133.01875 60.971874 134.3Q59.89375 135.05 59.534374 135.34688Q59.175 135.64375 58.675 136.12813L64.26875 136.12813L64.26875 139.05ZM76.8625 125.94063L78.72188 125.94063L71.26875 139.70625L69.44063 139.70625L76.8625 125.94063ZM65.925 129.33125Q65.925 128.425 66.31563 127.62813Q66.70625 126.81563 67.50313 126.37813Q68.31563 125.94063 69.40938 125.94063Q71.03438 125.94063 71.95625 126.8625Q72.89375 127.78438 72.89375 129.33125Q72.89375 130.87813 71.95625 131.8Q71.03438 132.72188 69.40938 132.72188Q68.31563 132.72188 67.50313 132.28438Q66.70625 131.84688 66.31563 131.05Q65.925 130.2375 65.925 129.33125ZM68.39375 129.34688Q68.39375 130.44063 68.7375 130.925Q68.97188 131.25313 69.40938 131.25313Q69.84688 131.25313 70.06563 130.925Q70.425 130.44063 70.425 129.34688Q70.425 128.26875 70.06563 127.76875Q69.84688 127.44063 69.40938 127.44063Q68.97188 127.44063 68.7375 127.76875Q68.39375 128.25313 68.39375 129.34688ZM75.20625 136.3Q75.20625 135.39375 75.59688 134.59688Q75.9875 133.78438 76.78438 133.34688Q77.59688 132.90938 78.69063 132.90938Q80.31563 132.90938 81.2375 133.83125Q82.175 134.75313 82.175 136.3Q82.175 137.83125 81.2375 138.76875Q80.31563 139.69063 78.69063 139.69063Q77.59688 139.69063 76.78438 139.25313Q75.9875 138.81563 75.59688 138.01875Q75.20625 137.20625 75.20625 136.3ZM77.675 136.31563Q77.675 137.40938 78.03438 137.89375Q78.25313 138.22188 78.69063 138.22188Q79.12813 138.22188 79.3625 137.89375Q79.70625 137.40938 79.70625 136.31563Q79.70625 135.22188 79.3625 134.72188Q79.12813 134.40938 78.69063 134.40938Q78.25313 134.40938 78.03438 134.7375Q77.675 135.22188 77.675 136.31563Z" fill-rule="nonzero"/><path stroke="#757575" stroke-width="1.0" stroke-linecap="butt" d="M35.05 117.55L190.05 117.55L424.28302 126.1477" fill-rule="nonzero"/><path fill="#9e9e9e" d="M426.28302 126.1477C426.28302 125.04313 425.38757 124.1477 424.28302 124.1477C423.17844 124.1477 422.28302 125.04313 422.28302 126.1477C422.28302 127.252266 423.17844 128.14769 424.28302 128.14769C425.38757 128.14769 426.28302 127.252266 426.28302 126.1477" fill-rule="nonzero"/><path fill="#1a1a1a" d="M44.3 162.925L39.76875 162.925L39.14375 165.05L35.065624 165.05L39.909374 152.15938L44.253124 152.15938L49.096874 165.05L44.925 165.05L44.3 162.925ZM43.45625 160.14375L42.034374 155.50313L40.628124 160.14375L43.45625 160.14375ZM50.159374 155.72188L53.503124 155.72188L53.503124 157.08125Q54.221874 156.22188 54.95625 155.8625Q55.690624 155.50313 56.721874 155.50313Q57.846874 155.50313 58.4875 155.90938Q59.14375 156.3 59.55 157.08125Q60.39375 156.15938 61.08125 155.83125Q61.784374 155.50313 62.8 155.50313Q64.31563 155.50313 65.15938 156.39375Q66.00313 157.28438 66.00313 159.19063L66.00313 165.05L62.409374 165.05L62.409374 159.7375Q62.409374 159.09688 62.159374 158.78438Q61.8 158.31563 61.26875 158.31563Q60.628124 158.31563 60.2375 158.76875Q59.8625 159.22188 59.8625 160.2375L59.8625 165.05L56.26875 165.05L56.26875 159.90938Q56.26875 159.3 56.20625 159.06563Q56.096874 158.72188 55.815624 158.50313Q55.534374 158.28438 55.14375 158.28438Q54.534374 158.28438 54.128124 158.75313Q53.7375 159.22188 53.7375 160.28438L53.7375 165.05L50.159374 165.05L50.159374 155.72188ZM71.39375 158.7375L67.97188 158.37813Q68.15938 157.4875 68.51875 156.97188Q68.89375 156.45625 69.58125 156.08125Q70.08125 155.8 70.94063 155.65938Q71.8 155.50313 72.8 155.50313Q74.40938 155.50313 75.37813 155.69063Q76.3625 155.8625 77.00313 156.44063Q77.47188 156.83125 77.72188 157.56563Q77.9875 158.28438 77.9875 158.94063L77.9875 163.06563Q77.9875 163.72188 78.06563 164.09688Q78.15938 164.47188 78.44063 165.05L75.08125 165.05Q74.87813 164.69063 74.81563 164.50313Q74.75313 164.31563 74.69063 163.90938Q73.9875 164.58125 73.3 164.87813Q72.34688 165.26875 71.09688 165.26875Q69.425 165.26875 68.55 164.4875Q67.69063 163.70625 67.69063 162.58125Q67.69063 161.51875 68.31563 160.83125Q68.94063 160.14375 70.6125 159.81563Q72.62813 159.40938 73.22188 159.25313Q73.83125 159.08125 74.4875 158.81563Q74.4875 158.15938 74.22188 157.89375Q73.95625 157.62813 73.26875 157.62813Q72.37813 157.62813 71.94063 157.90938Q71.59688 158.12813 71.39375 158.7375ZM74.4875 160.6125Q73.75313 160.87813 72.95625 161.08125Q71.8625 161.37813 71.58125 161.65938Q71.28438 161.94063 71.28438 162.31563Q71.28438 162.7375 71.56563 163.00313Q71.8625 163.26875 72.44063 163.26875Q73.03438 163.26875 73.55 162.9875Q74.06563 162.69063 74.26875 162.28438Q74.4875 161.8625 74.4875 161.19063L74.4875 160.6125ZM79.72188 155.72188L88.37813 155.72188L88.37813 157.8L83.675 162.6125L88.675 162.6125L88.675 165.05L79.37813 165.05L79.37813 162.72188L83.84688 158.15938L79.72188 158.15938L79.72188 155.72188ZM89.69063 160.40938Q89.69063 158.26875 91.12813 156.89375Q92.58125 155.50313 95.03438 155.50313Q97.83125 155.50313 99.26875 157.12813Q100.40938 158.44063 100.40938 160.3625Q100.40938 162.50313 98.9875 163.89375Q97.56563 165.26875 95.03438 165.26875Q92.78438 165.26875 91.39375 164.1125Q89.69063 162.70625 89.69063 160.40938ZM93.28438 160.39375Q93.28438 161.64375 93.78438 162.25313Q94.28438 162.84688 95.05 162.84688Q95.83125 162.84688 96.31563 162.25313Q96.81563 161.65938 96.81563 160.3625Q96.81563 159.15938 96.31563 158.56563Q95.81563 157.97188 95.08125 157.97188Q94.3 157.97188 93.78438 158.58125Q93.28438 159.175 93.28438 160.39375ZM102.12813 155.72188L105.45625 155.72188L105.45625 157.2375Q106.20625 156.3 106.97188 155.90938Q107.7375 155.50313 108.83125 155.50313Q110.31563 155.50313 111.15938 156.39375Q112.00313 157.26875 112.00313 159.1125L112.00313 165.05L108.40938 165.05L108.40938 159.90938Q108.40938 159.03438 108.08125 158.675Q107.75313 158.31563 107.175 158.31563Q106.51875 158.31563 106.1125 158.81563Q105.70625 159.3 105.70625 160.56563L105.70625 165.05L102.12813 165.05L102.12813 155.72188Z" fill-rule="nonzero"/><path fill="#9e9e9e" d="M46.26875 194.05L35.51875 194.05Q35.70625 192.45625 36.64375 191.06563Q37.58125 189.65938 40.159374 187.75313Q41.7375 186.58125 42.175 185.97188Q42.6125 185.3625 42.6125 184.81563Q42.6125 184.2375 42.175 183.81563Q41.7375 183.39375 41.08125 183.39375Q40.39375 183.39375 39.95625 183.83125Q39.51875 184.25313 39.378124 185.34688L35.784374 185.06563Q36.003124 183.55 36.565624 182.70625Q37.128124 181.84688 38.14375 181.39375Q39.175 180.94063 40.9875 180.94063Q42.878124 180.94063 43.925 181.37813Q44.971874 181.8 45.565624 182.70625Q46.175 183.59688 46.175 184.69063Q46.175 185.87813 45.4875 186.95625Q44.8 188.01875 42.971874 189.3Q41.89375 190.05 41.534374 190.34688Q41.175 190.64375 40.675 191.12813L46.26875 191.12813L46.26875 194.05ZM48.14375 190.50313L51.95625 190.50313L51.95625 193.44063Q51.95625 195.06563 51.284374 196.00313Q50.6125 196.95625 48.971874 197.675L48.14375 196.1125Q49.159374 195.62813 49.534374 195.15938Q49.925 194.69063 49.971874 194.05L48.14375 194.05L48.14375 190.50313ZM57.253124 184.89375L53.878124 184.28438Q54.3 182.675 55.4875 181.81563Q56.690624 180.94063 58.89375 180.94063Q61.425 180.94063 62.55 181.89375Q63.675 182.83125 63.675 184.25313Q63.675 185.08125 63.20625 185.76875Q62.753124 186.44063 61.83125 186.94063Q62.58125 187.12813 62.971874 187.37813Q63.6125 187.76875 63.971874 188.425Q64.33125 189.06563 64.33125 189.95625Q64.33125 191.08125 63.7375 192.12813Q63.14375 193.15938 62.034374 193.72188Q60.940624 194.26875 59.128124 194.26875Q57.378124 194.26875 56.3625 193.8625Q55.346874 193.44063 54.690624 192.64375Q54.034374 191.84688 53.690624 190.64375L57.253124 190.175Q57.471874 191.25313 57.909374 191.675Q58.3625 192.09688 59.05 192.09688Q59.76875 192.09688 60.2375 191.56563Q60.721874 191.03438 60.721874 190.15938Q60.721874 189.25313 60.253124 188.76875Q59.8 188.26875 59.003124 188.26875Q58.58125 188.26875 57.846874 188.4875L58.034374 185.925Q58.33125 185.97188 58.503124 185.97188Q59.20625 185.97188 59.675 185.53438Q60.14375 185.08125 60.14375 184.45625Q60.14375 183.87813 59.784374 183.53438Q59.440624 183.175 58.83125 183.175Q58.190624 183.175 57.784374 183.56563Q57.39375 183.94063 57.253124 184.89375ZM76.8625 180.94063L78.72188 180.94063L71.26875 194.70625L69.44063 194.70625L76.8625 180.94063ZM65.925 184.33125Q65.925 183.425 66.31563 182.62813Q66.70625 181.81563 67.50313 181.37813Q68.31563 180.94063 69.40938 180.94063Q71.03438 180.94063 71.95625 181.8625Q72.89375 182.78438 72.89375 184.33125Q72.89375 185.87813 71.95625 186.8Q71.03438 187.72188 69.40938 187.72188Q68.31563 187.72188 67.50313 187.28438Q66.70625 186.84688 66.31563 186.05Q65.925 185.2375 65.925 184.33125ZM68.39375 184.34688Q68.39375 185.44063 68.7375 185.925Q68.97188 186.25313 69.40938 186.25313Q69.84688 186.25313 70.06563 185.925Q70.425 185.44063 70.425 184.34688Q70.425 183.26875 70.06563 182.76875Q69.84688 182.44063 69.40938 182.44063Q68.97188 182.44063 68.7375 182.76875Q68.39375 183.25313 68.39375 184.34688ZM75.20625 191.3Q75.20625 190.39375 75.59688 189.59688Q75.9875 188.78438 76.78438 188.34688Q77.59688 187.90938 78.69063 187.90938Q80.31563 187.90938 81.2375 188.83125Q82.175 189.75313 82.175 191.3Q82.175 192.83125 81.2375 193.76875Q80.31563 194.69063 78.69063 194.69063Q77.59688 194.69063 76.78438 194.25313Q75.9875 193.81563 75.59688 193.01875Q75.20625 192.20625 75.20625 191.3ZM77.675 191.31563Q77.675 192.40938 78.03438 192.89375Q78.25313 193.22188 78.69063 193.22188Q79.12813 193.22188 79.3625 192.89375Q79.70625 192.40938 79.70625 191.31563Q79.70625 190.22188 79.3625 189.72188Q79.12813 189.40938 78.69063 189.40938Q78.25313 189.40938 78.03438 189.7375Q77.675 190.22188 77.675 191.31563Z" fill-rule="nonzero"/><path stroke="#757575" stroke-width="1.0" stroke-linecap="butt" d="M35.05 172.55L190.05 172.55L384.756 136.75217" fill-rule="nonzero"/><path fill="#9e9e9e" d="M386.756 136.75217C386.756 135.6476 385.8606 134.75217 384.756 134.75217C383.65146 134.75217 382.756 135.6476 382.756 136.75217C382.756 137.85674 383.65146 138.75217 384.756 138.75217C385.8606 138.75217 386.756 137.85674 386.756 136.75217" fill-rule="nonzero"/><path fill="#1a1a1a" d="M35.065624 207.15938L39.4875 207.15938L42.096874 211.51875L44.690624 207.15938L49.08125 207.15938L44.08125 214.65938L44.08125 220.05L40.08125 220.05L40.08125 214.65938L35.065624 207.15938ZM53.39375 213.7375L49.971874 213.37813Q50.159374 212.4875 50.51875 211.97188Q50.89375 211.45625 51.58125 211.08125Q52.08125 210.8 52.940624 210.65938Q53.8 210.50313 54.8 210.50313Q56.409374 210.50313 57.378124 210.69063Q58.3625 210.8625 59.003124 211.44063Q59.471874 211.83125 59.721874 212.56563Q59.9875 213.28438 59.9875 213.94063L59.9875 218.06563Q59.9875 218.72188 60.065624 219.09688Q60.159374 219.47188 60.440624 220.05L57.08125 220.05Q56.878124 219.69063 56.815624 219.50313Q56.753124 219.31563 56.690624 218.90938Q55.9875 219.58125 55.3 219.87813Q54.346874 220.26875 53.096874 220.26875Q51.425 220.26875 50.55 219.4875Q49.690624 218.70625 49.690624 217.58125Q49.690624 216.51875 50.315624 215.83125Q50.940624 215.14375 52.6125 214.81563Q54.628124 214.40938 55.221874 214.25313Q55.83125 214.08125 56.4875 213.81563Q56.4875 213.15938 56.221874 212.89375Q55.95625 212.62813 55.26875 212.62813Q54.378124 212.62813 53.940624 212.90938Q53.596874 213.12813 53.39375 213.7375ZM56.4875 215.6125Q55.753124 215.87813 54.95625 216.08125Q53.8625 216.37813 53.58125 216.65938Q53.284374 216.94063 53.284374 217.31563Q53.284374 217.7375 53.565624 218.00313Q53.8625 218.26875 54.440624 218.26875Q55.034374 218.26875 55.55 217.9875Q56.065624 217.69063 56.26875 217.28438Q56.4875 216.8625 56.4875 216.19063L56.4875 215.6125ZM62.128124 207.15938L65.70625 207.15938L65.70625 211.90938Q66.44063 211.15938 67.15938 210.83125Q67.87813 210.50313 68.8625 210.50313Q70.31563 210.50313 71.15938 211.39375Q72.00313 212.28438 72.00313 214.1125L72.00313 220.05L68.40938 220.05L68.40938 214.90938Q68.40938 214.03438 68.08125 213.675Q67.75313 213.31563 67.175 213.31563Q66.51875 213.31563 66.1125 213.81563Q65.70625 214.3 65.70625 215.56563L65.70625 220.05L62.128124 220.05L62.128124 207.15938ZM73.69063 215.40938Q73.69063 213.26875 75.12813 211.89375Q76.58125 210.50313 79.03438 210.50313Q81.83125 210.50313 83.26875 212.12813Q84.40938 213.44063 84.40938 215.3625Q84.40938 217.50313 82.9875 218.89375Q81.56563 220.26875 79.03438 220.26875Q76.78438 220.26875 75.39375 219.1125Q73.69063 217.70625 73.69063 215.40938ZM77.28438 215.39375Q77.28438 216.64375 77.78438 217.25313Q78.28438 217.84688 79.05 217.84688Q79.83125 217.84688 80.31563 217.25313Q80.81563 216.65938 80.81563 215.3625Q80.81563 214.15938 80.31563 213.56563Q79.81563 212.97188 79.08125 212.97188Q78.3 212.97188 77.78438 213.58125Q77.28438 214.175 77.28438 215.39375ZM85.69063 215.40938Q85.69063 213.26875 87.12813 211.89375Q88.58125 210.50313 91.03438 210.50313Q93.83125 210.50313 95.26875 212.12813Q96.40938 213.44063 96.40938 215.3625Q96.40938 217.50313 94.9875 218.89375Q93.56563 220.26875 91.03438 220.26875Q88.78438 220.26875 87.39375 219.1125Q85.69063 217.70625 85.69063 215.40938ZM89.28438 215.39375Q89.28438 216.64375 89.78438 217.25313Q90.28438 217.84688 91.05 217.84688Q91.83125 217.84688 92.31563 217.25313Q92.81563 216.65938 92.81563 215.3625Q92.81563 214.15938 92.31563 213.56563Q91.81563 212.97188 91.08125 212.97188Q90.3 212.97188 89.78438 213.58125Q89.28438 214.175 89.28438 215.39375Z" fill-rule="nonzero"/><path fill="#9e9e9e" d="M46.26875 249.05L35.51875 249.05Q35.70625 247.45625 36.64375 246.06563Q37.58125 244.65938 40.159374 242.75313Q41.7375 241.58125 42.175 240.97188Q42.6125 240.3625 42.6125 239.81563Q42.6125 239.2375 42.175 238.81563Q41.7375 238.39375 41.08125 238.39375Q40.39375 238.39375 39.95625 238.83125Q39.51875 239.25313 39.378124 240.34688L35.784374 240.06563Q36.003124 238.55 36.565624 237.70625Q37.128124 236.84688 38.14375 236.39375Q39.175 235.94063 40.9875 235.94063Q42.878124 235.94063 43.925 236.37813Q44.971874 236.8 45.565624 237.70625Q46.175 238.59688 46.175 239.69063Q46.175 240.87813 45.4875 241.95625Q44.8 243.01875 42.971874 244.3Q41.89375 245.05 41.534374 245.34688Q41.175 245.64375 40.675 246.12813L46.26875 246.12813L46.26875 249.05ZM48.14375 245.50313L51.95625 245.50313L51.95625 248.44063Q51.95625 250.06563 51.284374 251.00313Q50.6125 251.95625 48.971874 252.675L48.14375 251.1125Q49.159374 250.62813 49.534374 250.15938Q49.925 249.69063 49.971874 249.05L48.14375 249.05L48.14375 245.50313ZM59.940624 246.64375L53.425 246.64375L53.425 243.69063L59.940624 235.94063L63.065624 235.94063L63.065624 243.8625L64.675 243.8625L64.675 246.64375L63.065624 246.64375L63.065624 249.05L59.940624 249.05L59.940624 246.64375ZM59.940624 243.8625L59.940624 239.81563L56.503124 243.8625L59.940624 243.8625ZM76.8625 235.94063L78.72188 235.94063L71.26875 249.70625L69.44063 249.70625L76.8625 235.94063ZM65.925 239.33125Q65.925 238.425 66.31563 237.62813Q66.70625 236.81563 67.50313 236.37813Q68.31563 235.94063 69.40938 235.94063Q71.03438 235.94063 71.95625 236.8625Q72.89375 237.78438 72.89375 239.33125Q72.89375 240.87813 71.95625 241.8Q71.03438 242.72188 69.40938 242.72188Q68.31563 242.72188 67.50313 242.28438Q66.70625 241.84688 66.31563 241.05Q65.925 240.2375 65.925 239.33125ZM68.39375 239.34688Q68.39375 240.44063 68.7375 240.925Q68.97188 241.25313 69.40938 241.25313Q69.84688 241.25313 70.06563 240.925Q70.425 240.44063 70.425 239.34688Q70.425 238.26875 70.06563 237.76875Q69.84688 237.44063 69.40938 237.44063Q68.97188 237.44063 68.7375 237.76875Q68.39375 238.25313 68.39375 239.34688ZM75.20625 246.3Q75.20625 245.39375 75.59688 244.59688Q75.9875 243.78438 76.78438 243.34688Q77.59688 242.90938 78.69063 242.90938Q80.31563 242.90938 81.2375 243.83125Q82.175 244.75313 82.175 246.3Q82.175 247.83125 81.2375 248.76875Q80.31563 249.69063 78.69063 249.69063Q77.59688 249.69063 76.78438 249.25313Q75.9875 248.81563 75.59688 248.01875Q75.20625 247.20625 75.20625 246.3ZM77.675 246.31563Q77.675 247.40938 78.03438 247.89375Q78.25313 248.22188 78.69063 248.22188Q79.12813 248.22188 79.3625 247.89375Q79.70625 247.40938 79.70625 246.31563Q79.70625 245.22188 79.3625 244.72188Q79.12813 244.40938 78.69063 244.40938Q78.25313 244.40938 78.03438 244.7375Q77.675 245.22188 77.675 246.31563Z" fill-rule="nonzero"/><path stroke="#757575" stroke-width="1.0" stroke-linecap="butt" d="M35.05 227.55L190.05 227.55L346.18414 151.87308" fill-rule="nonzero"/><path fill="#9e9e9e" d="M348.18414 151.87308C348.18414 150.76851 347.28873 149.87308 346.18414 149.87308C345.0796 149.87308 344.18414 150.76851 344.18414 151.87308C344.18414 152.97765 345.0796 153.87308 346.18414 153.87308C347.28873 153.87308 348.18414 152.97765 348.18414 151.87308" fill-rule="nonzero"/><path fill="#1a1a1a" d="M35.065624 262.15936L39.4875 262.15936L42.096874 266.51874L44.690624 262.15936L49.08125 262.15936L44.08125 269.65936L44.08125 275.05L40.08125 275.05L40.08125 269.65936L35.065624 262.15936ZM49.690624 270.40936Q49.690624 268.26874 51.128124 266.89374Q52.58125 265.5031 55.034374 265.5031Q57.83125 265.5031 59.26875 267.1281Q60.409374 268.4406 60.409374 270.3625Q60.409374 272.5031 58.9875 273.89374Q57.565624 275.26874 55.034374 275.26874Q52.784374 275.26874 51.39375 274.1125Q49.690624 272.70624 49.690624 270.40936ZM53.284374 270.39374Q53.284374 271.64374 53.784374 272.2531Q54.284374 272.84686 55.05 272.84686Q55.83125 272.84686 56.315624 272.2531Q56.815624 271.65936 56.815624 270.3625Q56.815624 269.15936 56.315624 268.5656Q55.815624 267.97186 55.08125 267.97186Q54.3 267.97186 53.784374 268.58124Q53.284374 269.175 53.284374 270.39374ZM71.97188 275.05L68.62813 275.05L68.62813 273.53436Q67.87813 274.47186 67.1125 274.8781Q66.3625 275.26874 65.25313 275.26874Q63.76875 275.26874 62.925 274.3781Q62.096874 273.4875 62.096874 271.65936L62.096874 265.72186L65.69063 265.72186L65.69063 270.84686Q65.69063 271.72186 66.01875 272.09686Q66.34688 272.47186 66.925 272.47186Q67.56563 272.47186 67.97188 271.9875Q68.39375 271.4875 68.39375 270.20624L68.39375 265.72186L71.97188 265.72186L71.97188 275.05ZM79.45625 262.15936L91.56563 262.15936L91.56563 265.34686L87.50313 265.34686L87.50313 275.05L83.51875 275.05L83.51875 265.34686L79.45625 265.34686L79.45625 262.15936ZM102.97188 275.05L99.62813 275.05L99.62813 273.53436Q98.87813 274.47186 98.1125 274.8781Q97.3625 275.26874 96.25313 275.26874Q94.76875 275.26874 93.925 274.3781Q93.09688 273.4875 93.09688 271.65936L93.09688 265.72186L96.69063 265.72186L96.69063 270.84686Q96.69063 271.72186 97.01875 272.09686Q97.34688 272.47186 97.925 272.47186Q98.56563 272.47186 98.97188 271.9875Q99.39375 271.4875 99.39375 270.20624L99.39375 265.72186L102.97188 265.72186L102.97188 275.05ZM105.14375 262.15936L108.76875 262.15936L108.76875 266.6281Q109.3 266.0656 109.97188 265.78436Q110.65938 265.5031 111.4875 265.5031Q113.19063 265.5031 114.3 266.7375Q115.425 267.95624 115.425 270.2531Q115.425 271.78436 114.90938 272.95624Q114.40938 274.1125 113.50313 274.6906Q112.59688 275.26874 111.50313 275.26874Q110.56563 275.26874 109.78438 274.8625Q109.19063 274.53436 108.50313 273.675L108.50313 275.05L105.14375 275.05L105.14375 262.15936ZM108.7375 270.3625Q108.7375 271.5656 109.19063 272.1125Q109.64375 272.64374 110.33125 272.64374Q110.97188 272.64374 111.40938 272.1125Q111.84688 271.58124 111.84688 270.3156Q111.84688 269.20624 111.40938 268.6906Q110.9875 268.175 110.39375 268.175Q109.65938 268.175 109.19063 268.72186Q108.7375 269.2531 108.7375 270.3625ZM127.4875 271.26874L120.31563 271.26874Q120.425 272.1281 120.78438 272.55Q121.3 273.15936 122.14375 273.15936Q122.675 273.15936 123.14375 272.89374Q123.44063 272.72186 123.76875 272.3L127.28438 272.6281Q126.4875 274.03436 125.33125 274.65936Q124.19063 275.26874 122.06563 275.26874Q120.20625 275.26874 119.14375 274.7531Q118.08125 274.22186 117.37813 273.08124Q116.69063 271.9406 116.69063 270.39374Q116.69063 268.20624 118.08125 266.8625Q119.4875 265.5031 121.95625 265.5031Q123.95625 265.5031 125.1125 266.1125Q126.28438 266.72186 126.87813 267.8781Q127.4875 269.01874 127.4875 270.8625L127.4875 271.26874ZM123.8625 269.55Q123.75313 268.51874 123.3 268.08124Q122.84688 267.6281 122.1125 267.6281Q121.25313 267.6281 120.7375 268.3Q120.425 268.72186 120.33125 269.55L123.8625 269.55Z" fill-rule="nonzero"/><path fill="#9e9e9e" d="M41.940624 301.64374L35.425 301.64374L35.425 298.6906L41.940624 290.9406L45.065624 290.9406L45.065624 298.8625L46.675 298.8625L46.675 301.64374L45.065624 301.64374L45.065624 304.05L41.940624 304.05L41.940624 301.64374ZM41.940624 298.8625L41.940624 294.8156L38.503124 298.8625L41.940624 298.8625ZM48.14375 300.5031L51.95625 300.5031L51.95625 303.4406Q51.95625 305.0656 51.284374 306.0031Q50.6125 306.95624 48.971874 307.675L48.14375 306.1125Q49.159374 305.6281 49.534374 305.15936Q49.925 304.6906 49.971874 304.05L48.14375 304.05L48.14375 300.5031ZM57.253124 294.89374L53.878124 294.28436Q54.3 292.675 55.4875 291.8156Q56.690624 290.9406 58.89375 290.9406Q61.425 290.9406 62.55 291.89374Q63.675 292.83124 63.675 294.2531Q63.675 295.08124 63.20625 295.76874Q62.753124 296.4406 61.83125 296.9406Q62.58125 297.1281 62.971874 297.3781Q63.6125 297.76874 63.971874 298.425Q64.33125 299.0656 64.33125 299.95624Q64.33125 301.08124 63.7375 302.1281Q63.14375 303.15936 62.034374 303.72186Q60.940624 304.26874 59.128124 304.26874Q57.378124 304.26874 56.3625 303.8625Q55.346874 303.4406 54.690624 302.64374Q54.034374 301.84686 53.690624 300.64374L57.253124 300.175Q57.471874 301.2531 57.909374 301.675Q58.3625 302.09686 59.05 302.09686Q59.76875 302.09686 60.2375 301.5656Q60.721874 301.03436 60.721874 300.15936Q60.721874 299.2531 60.253124 298.76874Q59.8 298.26874 59.003124 298.26874Q58.58125 298.26874 57.846874 298.4875L58.034374 295.925Q58.33125 295.97186 58.503124 295.97186Q59.20625 295.97186 59.675 295.53436Q60.14375 295.08124 60.14375 294.45624Q60.14375 293.8781 59.784374 293.53436Q59.440624 293.175 58.83125 293.175Q58.190624 293.175 57.784374 293.5656Q57.39375 293.9406 57.253124 294.89374ZM76.8625 290.9406L78.72188 290.9406L71.26875 304.70624L69.44063 304.70624L76.8625 290.9406ZM65.925 294.33124Q65.925 293.425 66.31563 292.6281Q66.70625 291.8156 67.50313 291.3781Q68.31563 290.9406 69.40938 290.9406Q71.03438 290.9406 71.95625 291.8625Q72.89375 292.78436 72.89375 294.33124Q72.89375 295.8781 71.95625 296.8Q71.03438 297.72186 69.40938 297.72186Q68.31563 297.72186 67.50313 297.28436Q66.70625 296.84686 66.31563 296.05Q65.925 295.2375 65.925 294.33124ZM68.39375 294.34686Q68.39375 295.4406 68.7375 295.925Q68.97188 296.2531 69.40938 296.2531Q69.84688 296.2531 70.06563 295.925Q70.425 295.4406 70.425 294.34686Q70.425 293.26874 70.06563 292.76874Q69.84688 292.4406 69.40938 292.4406Q68.97188 292.4406 68.7375 292.76874Q68.39375 293.2531 68.39375 294.34686ZM75.20625 301.3Q75.20625 300.39374 75.59688 299.59686Q75.9875 298.78436 76.78438 298.34686Q77.59688 297.90936 78.69063 297.90936Q80.31563 297.90936 81.2375 298.83124Q82.175 299.7531 82.175 301.3Q82.175 302.83124 81.2375 303.76874Q80.31563 304.6906 78.69063 304.6906Q77.59688 304.6906 76.78438 304.2531Q75.9875 303.8156 75.59688 303.01874Q75.20625 302.20624 75.20625 301.3ZM77.675 301.3156Q77.675 302.40936 78.03438 302.89374Q78.25313 303.22186 78.69063 303.22186Q79.12813 303.22186 79.3625 302.89374Q79.70625 302.40936 79.70625 301.3156Q79.70625 300.22186 79.3625 299.72186Q79.12813 299.40936 78.69063 299.40936Q78.25313 299.40936 78.03438 299.7375Q77.675 300.22186 77.675 301.3156Z" fill-rule="nonzero"/><path stroke="#757575" stroke-width="1.0" stroke-linecap="butt" d="M35.05 282.55L190.05 282.55L297.6083 179.91302" fill-rule="nonzero"/><path fill="#9e9e9e" d="M299.6083 179.91302C299.6083 178.80846 298.71286 177.91302 297.6083 177.91302C296.50372 177.91302 295.6083 178.80846 295.6083 179.91302C295.6083 181.0176 296.50372 181.91302 297.6083 181.91302C298.71286 181.91302 299.6083 181.0176 299.6083 179.91302" fill-rule="nonzero"/><path fill="#1a1a1a" d="M42.846874 329.1564L42.846874 326.48453L49.003124 326.48453L49.003124 331.9689Q47.2375 333.17203 45.878124 333.60953Q44.51875 334.04703 42.659374 334.04703Q40.3625 334.04703 38.909374 333.26578Q37.471874 332.48453 36.675 330.93765Q35.878124 329.39078 35.878124 327.39078Q35.878124 325.2814 36.7375 323.7189Q37.6125 322.1564 39.3 321.3439Q40.6125 320.7189 42.815624 320.7189Q44.95625 320.7189 46.01875 321.10953Q47.08125 321.50015 47.76875 322.31265Q48.471874 323.12515 48.815624 324.37515L44.9875 325.06265Q44.7375 324.32828 44.175 323.93765Q43.6125 323.54703 42.7375 323.54703Q41.425 323.54703 40.64375 324.4689Q39.8625 325.37515 39.8625 327.3439Q39.8625 329.43765 40.64375 330.32828Q41.440624 331.2189 42.846874 331.2189Q43.51875 331.2189 44.1125 331.0314Q44.721874 330.8439 45.503124 330.37515L45.503124 329.1564L42.846874 329.1564ZM50.690624 329.18765Q50.690624 327.04703 52.128124 325.67203Q53.58125 324.2814 56.034374 324.2814Q58.83125 324.2814 60.26875 325.9064Q61.409374 327.2189 61.409374 329.14078Q61.409374 331.2814 59.9875 332.67203Q58.565624 334.04703 56.034374 334.04703Q53.784374 334.04703 52.39375 332.89078Q50.690624 331.48453 50.690624 329.18765ZM54.284374 329.17203Q54.284374 330.42203 54.784374 331.0314Q55.284374 331.62515 56.05 331.62515Q56.83125 331.62515 57.315624 331.0314Q57.815624 330.43765 57.815624 329.14078Q57.815624 327.93765 57.315624 327.3439Q56.815624 326.75015 56.08125 326.75015Q55.3 326.75015 54.784374 327.35953Q54.284374 327.95328 54.284374 329.17203ZM62.690624 329.18765Q62.690624 327.04703 64.12813 325.67203Q65.58125 324.2814 68.03438 324.2814Q70.83125 324.2814 72.26875 325.9064Q73.40938 327.2189 73.40938 329.14078Q73.40938 331.2814 71.9875 332.67203Q70.56563 334.04703 68.03438 334.04703Q65.78438 334.04703 64.39375 332.89078Q62.690624 331.48453 62.690624 329.18765ZM66.28438 329.17203Q66.28438 330.42203 66.78438 331.0314Q67.28438 331.62515 68.05 331.62515Q68.83125 331.62515 69.31563 331.0314Q69.81563 330.43765 69.81563 329.14078Q69.81563 327.93765 69.31563 327.3439Q68.81563 326.75015 68.08125 326.75015Q67.3 326.75015 66.78438 327.35953Q66.28438 327.95328 66.28438 329.17203ZM81.62813 324.50015L84.97188 324.50015L84.97188 333.31265L84.9875 333.7189Q84.9875 334.60953 84.6125 335.39078Q84.2375 336.18765 83.6125 336.67203Q83.00313 337.17203 82.05 337.39078Q81.09688 337.60953 79.8625 337.60953Q77.05 337.60953 75.9875 336.76578Q74.94063 335.92203 74.94063 334.51578Q74.94063 334.3439 74.97188 334.04703L78.44063 334.43765Q78.56563 334.92203 78.84688 335.10953Q79.2375 335.37515 79.83125 335.37515Q80.6125 335.37515 80.9875 334.95328Q81.37813 334.54703 81.37813 333.51578L81.37813 332.10953Q80.84688 332.73453 80.31563 333.01578Q79.4875 333.45328 78.53438 333.45328Q76.65938 333.45328 75.50313 331.81265Q74.69063 330.6564 74.69063 328.75015Q74.69063 326.56265 75.7375 325.42203Q76.8 324.2814 78.50313 324.2814Q79.59688 324.2814 80.3 324.6564Q81.01875 325.01578 81.62813 325.87515L81.62813 324.50015ZM78.25313 329.01578Q78.25313 330.0314 78.69063 330.51578Q79.12813 331.00015 79.83125 331.00015Q80.4875 331.00015 80.94063 330.50015Q81.39375 330.00015 81.39375 328.9689Q81.39375 327.95328 80.925 327.42203Q80.45625 326.87515 79.76875 326.87515Q79.08125 326.87515 78.65938 327.37515Q78.25313 327.87515 78.25313 329.01578ZM87.25313 320.93765L90.84688 320.93765L90.84688 333.82828L87.25313 333.82828L87.25313 320.93765ZM103.4875 330.04703L96.31563 330.04703Q96.425 330.9064 96.78438 331.32828Q97.3 331.93765 98.14375 331.93765Q98.675 331.93765 99.14375 331.67203Q99.44063 331.50015 99.76875 331.07828L103.28438 331.4064Q102.4875 332.81265 101.33125 333.43765Q100.19063 334.04703 98.06563 334.04703Q96.20625 334.04703 95.14375 333.5314Q94.08125 333.00015 93.37813 331.85953Q92.69063 330.7189 92.69063 329.17203Q92.69063 326.98453 94.08125 325.64078Q95.4875 324.2814 97.95625 324.2814Q99.95625 324.2814 101.1125 324.89078Q102.28438 325.50015 102.87813 326.6564Q103.4875 327.79703 103.4875 329.64078L103.4875 330.04703ZM99.8625 328.32828Q99.75313 327.29703 99.3 326.85953Q98.84688 326.4064 98.1125 326.4064Q97.25313 326.4064 96.7375 327.07828Q96.425 327.50015 96.33125 328.32828L99.8625 328.32828ZM111.39375 320.93765L115.3625 320.93765L115.3625 325.81265L119.55 320.93765L124.83125 320.93765L120.14375 325.79703L125.05 333.82828L120.14375 333.82828L117.425 328.5314L115.3625 330.68765L115.3625 333.82828L111.39375 333.82828L111.39375 320.93765ZM136.4875 330.04703L129.31563 330.04703Q129.425 330.9064 129.78438 331.32828Q130.3 331.93765 131.14375 331.93765Q131.675 331.93765 132.14375 331.67203Q132.44063 331.50015 132.76875 331.07828L136.28438 331.4064Q135.4875 332.81265 134.33125 333.43765Q133.19063 334.04703 131.06563 334.04703Q129.20625 334.04703 128.14375 333.5314Q127.08125 333.00015 126.37813 331.85953Q125.69063 330.7189 125.69063 329.17203Q125.69063 326.98453 127.08125 325.64078Q128.4875 324.2814 130.95625 324.2814Q132.95625 324.2814 134.1125 324.89078Q135.28438 325.50015 135.87813 326.6564Q136.4875 327.79703 136.4875 329.64078L136.4875 330.04703ZM132.8625 328.32828Q132.75313 327.29703 132.3 326.85953Q131.84688 326.4064 131.1125 326.4064Q130.25313 326.4064 129.7375 327.07828Q129.425 327.50015 129.33125 328.32828L132.8625 328.32828ZM130.95625 320.7189L134.03438 320.7189L131.19063 323.3439L129.4875 323.3439L130.95625 320.7189ZM138.14375 337.37515L138.14375 324.50015L141.50313 324.50015L141.50313 325.87515Q142.19063 325.00015 142.76875 324.70328Q143.55 324.2814 144.50313 324.2814Q146.37813 324.2814 147.39375 325.7189Q148.425 327.14078 148.425 329.25015Q148.425 331.5939 147.3 332.82828Q146.19063 334.04703 144.4875 334.04703Q143.65938 334.04703 142.97188 333.76578Q142.3 333.4689 141.76875 332.92203L141.76875 337.37515L138.14375 337.37515ZM141.7375 329.18765Q141.7375 330.29703 142.19063 330.82828Q142.65938 331.35953 143.37813 331.35953Q144.00313 331.35953 144.425 330.85953Q144.84688 330.3439 144.84688 329.10953Q144.84688 327.9689 144.40938 327.43765Q143.97188 326.9064 143.33125 326.9064Q142.64375 326.9064 142.19063 327.45328Q141.7375 327.98453 141.7375 329.18765ZM160.4875 330.04703L153.31563 330.04703Q153.425 330.9064 153.78438 331.32828Q154.3 331.93765 155.14375 331.93765Q155.675 331.93765 156.14375 331.67203Q156.44063 331.50015 156.76875 331.07828L160.28438 331.4064Q159.4875 332.81265 158.33125 333.43765Q157.19063 334.04703 155.06563 334.04703Q153.20625 334.04703 152.14375 333.5314Q151.08125 333.00015 150.37813 331.85953Q149.69063 330.7189 149.69063 329.17203Q149.69063 326.98453 151.08125 325.64078Q152.4875 324.2814 154.95625 324.2814Q156.95625 324.2814 158.1125 324.89078Q159.28438 325.50015 159.87813 326.6564Q160.4875 327.79703 160.4875 329.64078L160.4875 330.04703ZM156.8625 328.32828Q156.75313 327.29703 156.3 326.85953Q155.84688 326.4064 155.1125 326.4064Q154.25313 326.4064 153.7375 327.07828Q153.425 327.50015 153.33125 328.32828L156.8625 328.32828ZM162.12813 320.93765L165.78438 320.93765L165.78438 327.5939L168.45625 324.50015L172.8625 324.50015L169.51875 327.76578L173.05 333.82828L169.01875 333.82828L167.12813 330.07828L165.78438 331.4064L165.78438 333.82828L162.12813 333.82828L162.12813 320.93765Z" fill-rule="nonzero"/><path fill="#9e9e9e" d="M46.26875 362.82828L35.51875 362.82828Q35.70625 361.23453 36.64375 359.8439Q37.58125 358.43765 40.159374 356.5314Q41.7375 355.35953 42.175 354.75015Q42.6125 354.14078 42.6125 353.5939Q42.6125 353.01578 42.175 352.5939Q41.7375 352.17203 41.08125 352.17203Q40.39375 352.17203 39.95625 352.60953Q39.51875 353.0314 39.378124 354.12515L35.784374 353.8439Q36.003124 352.32828 36.565624 351.48453Q37.128124 350.62515 38.14375 350.17203Q39.175 349.7189 40.9875 349.7189Q42.878124 349.7189 43.925 350.1564Q44.971874 350.57828 45.565624 351.48453Q46.175 352.37515 46.175 353.4689Q46.175 354.6564 45.4875 355.73453Q44.8 356.79703 42.971874 358.07828Q41.89375 358.82828 41.534374 359.12515Q41.175 359.42203 40.675 359.9064L46.26875 359.9064L46.26875 362.82828ZM58.26875 362.82828L47.51875 362.82828Q47.70625 361.23453 48.64375 359.8439Q49.58125 358.43765 52.159374 356.5314Q53.7375 355.35953 54.175 354.75015Q54.6125 354.14078 54.6125 353.5939Q54.6125 353.01578 54.175 352.5939Q53.7375 352.17203 53.08125 352.17203Q52.39375 352.17203 51.95625 352.60953Q51.51875 353.0314 51.378124 354.12515L47.784374 353.8439Q48.003124 352.32828 48.565624 351.48453Q49.128124 350.62515 50.14375 350.17203Q51.175 349.7189 52.9875 349.7189Q54.878124 349.7189 55.925 350.1564Q56.971874 350.57828 57.565624 351.48453Q58.175 352.37515 58.175 353.4689Q58.175 354.6564 57.4875 355.73453Q56.8 356.79703 54.971874 358.07828Q53.89375 358.82828 53.534374 359.12515Q53.175 359.42203 52.675 359.9064L58.26875 359.9064L58.26875 362.82828ZM60.14375 359.2814L63.95625 359.2814L63.95625 362.2189Q63.95625 363.8439 63.284374 364.7814Q62.6125 365.73453 60.971874 366.45328L60.14375 364.89078Q61.159374 364.4064 61.534374 363.93765Q61.925 363.4689 61.971874 362.82828L60.14375 362.82828L60.14375 359.2814ZM76.14375 352.8439L72.59688 353.2814Q72.45625 352.5314 72.1125 352.23453Q71.78438 351.92203 71.31563 351.92203Q70.44063 351.92203 69.95625 352.79703Q69.59688 353.43765 69.44063 355.50015Q70.08125 354.85953 70.75313 354.54703Q71.425 354.23453 72.31563 354.23453Q74.03438 354.23453 75.22188 355.4689Q76.425 356.68765 76.425 358.57828Q76.425 359.85953 75.81563 360.92203Q75.22188 361.9689 74.14375 362.51578Q73.08125 363.04703 71.47188 363.04703Q69.53438 363.04703 68.3625 362.39078Q67.20625 361.73453 66.50313 360.29703Q65.8 358.8439 65.8 356.45328Q65.8 352.9689 67.26875 351.3439Q68.7375 349.7189 71.34688 349.7189Q72.87813 349.7189 73.76875 350.07828Q74.65938 350.43765 75.25313 351.12515Q75.84688 351.81265 76.14375 352.8439ZM69.56563 358.57828Q69.56563 359.62515 70.08125 360.2189Q70.6125 360.81265 71.37813 360.81265Q72.08125 360.81265 72.55 360.2814Q73.03438 359.75015 73.03438 358.67203Q73.03438 357.5939 72.53438 357.0314Q72.05 356.45328 71.31563 356.45328Q70.56563 356.45328 70.06563 357.00015Q69.56563 357.54703 69.56563 358.57828ZM88.8625 349.7189L90.72188 349.7189L83.26875 363.48453L81.44063 363.48453L88.8625 349.7189ZM77.925 353.10953Q77.925 352.20328 78.31563 351.4064Q78.70625 350.5939 79.50313 350.1564Q80.31563 349.7189 81.40938 349.7189Q83.03438 349.7189 83.95625 350.64078Q84.89375 351.56265 84.89375 353.10953Q84.89375 354.6564 83.95625 355.57828Q83.03438 356.50015 81.40938 356.50015Q80.31563 356.50015 79.50313 356.06265Q78.70625 355.62515 78.31563 354.82828Q77.925 354.01578 77.925 353.10953ZM80.39375 353.12515Q80.39375 354.2189 80.7375 354.70328Q80.97188 355.0314 81.40938 355.0314Q81.84688 355.0314 82.06563 354.70328Q82.425 354.2189 82.425 353.12515Q82.425 352.04703 82.06563 351.54703Q81.84688 351.2189 81.40938 351.2189Q80.97188 351.2189 80.7375 351.54703Q80.39375 352.0314 80.39375 353.12515ZM87.20625 360.07828Q87.20625 359.17203 87.59688 358.37515Q87.9875 357.56265 88.78438 357.12515Q89.59688 356.68765 90.69063 356.68765Q92.31563 356.68765 93.2375 357.60953Q94.175 358.5314 94.175 360.07828Q94.175 361.60953 93.2375 362.54703Q92.31563 363.4689 90.69063 363.4689Q89.59688 363.4689 88.78438 363.0314Q87.9875 362.5939 87.59688 361.79703Q87.20625 360.98453 87.20625 360.07828ZM89.675 360.0939Q89.675 361.18765 90.03438 361.67203Q90.25313 362.00015 90.69063 362.00015Q91.12813 362.00015 91.3625 361.67203Q91.70625 361.18765 91.70625 360.0939Q91.70625 359.00015 91.3625 358.50015Q91.12813 358.18765 90.69063 358.18765Q90.25313 358.18765 90.03438 358.51578Q89.675 359.00015 89.675 360.0939Z" fill-rule="nonzero"/><path stroke="#757575" stroke-width="1.0" stroke-linecap="butt" d="M35.05 341.32828L190.05 341.32828L212.53798 341.32828" fill-rule="nonzero"/><path fill="#9e9e9e" d="M214.53798 341.32828C214.53798 340.2237 213.64255 339.32828 212.53798 339.32828C211.43341 339.32828 210.53798 340.2237 210.53798 341.32828C210.53798 342.43283 211.43341 343.32828 212.53798 343.32828C213.64255 343.32828 214.53798 342.43283 214.53798 341.32828" fill-rule="nonzero"/><path fill="#1a1a1a" d="M926.7469 395.55496L926.7469 392.8831L932.90314 392.8831L932.90314 398.36746Q931.1375 399.5706 929.77814 400.0081Q928.41876 400.4456 926.5594 400.4456Q924.2625 400.4456 922.8094 399.66434Q921.3719 398.8831 920.575 397.3362Q919.77814 395.78934 919.77814 393.78934Q919.77814 391.67996 920.6375 390.11746Q921.5125 388.55496 923.2 387.74246Q924.5125 387.11746 926.71564 387.11746Q928.85626 387.11746 929.91876 387.5081Q930.98126 387.8987 931.66876 388.7112Q932.3719 389.5237 932.71564 390.7737L928.8875 391.4612Q928.6375 390.72684 928.075 390.3362Q927.5125 389.9456 926.6375 389.9456Q925.325 389.9456 924.54376 390.86746Q923.7625 391.7737 923.7625 393.74246Q923.7625 395.8362 924.54376 396.72684Q925.34064 397.61746 926.7469 397.61746Q927.41876 397.61746 928.0125 397.42996Q928.6219 397.24246 929.40314 396.7737L929.40314 395.55496L926.7469 395.55496ZM934.59064 395.5862Q934.59064 393.4456 936.02814 392.0706Q937.48126 390.67996 939.9344 390.67996Q942.73126 390.67996 944.16876 392.30496Q945.3094 393.61746 945.3094 395.53934Q945.3094 397.67996 943.8875 399.0706Q942.46564 400.4456 939.9344 400.4456Q937.6844 400.4456 936.29376 399.28934Q934.59064 397.8831 934.59064 395.5862ZM938.1844 395.5706Q938.1844 396.8206 938.6844 397.42996Q939.1844 398.0237 939.95 398.0237Q940.73126 398.0237 941.21564 397.42996Q941.71564 396.8362 941.71564 395.53934Q941.71564 394.3362 941.21564 393.74246Q940.71564 393.1487 939.98126 393.1487Q939.2 393.1487 938.6844 393.7581Q938.1844 394.35184 938.1844 395.5706ZM946.59064 395.5862Q946.59064 393.4456 948.02814 392.0706Q949.48126 390.67996 951.9344 390.67996Q954.73126 390.67996 956.16876 392.30496Q957.3094 393.61746 957.3094 395.53934Q957.3094 397.67996 955.8875 399.0706Q954.46564 400.4456 951.9344 400.4456Q949.6844 400.4456 948.29376 399.28934Q946.59064 397.8831 946.59064 395.5862ZM950.1844 395.5706Q950.1844 396.8206 950.6844 397.42996Q951.1844 398.0237 951.95 398.0237Q952.73126 398.0237 953.21564 397.42996Q953.71564 396.8362 953.71564 395.53934Q953.71564 394.3362 953.21564 393.74246Q952.71564 393.1487 951.98126 393.1487Q951.2 393.1487 950.6844 393.7581Q950.1844 394.35184 950.1844 395.5706ZM965.52814 390.8987L968.8719 390.8987L968.8719 399.7112L968.8875 400.11746Q968.8875 401.0081 968.5125 401.78934Q968.1375 402.5862 967.5125 403.0706Q966.90314 403.5706 965.95 403.78934Q964.9969 404.0081 963.7625 404.0081Q960.95 404.0081 959.8875 403.16434Q958.84064 402.3206 958.84064 400.91434Q958.84064 400.74246 958.8719 400.4456L962.34064 400.8362Q962.46564 401.3206 962.7469 401.5081Q963.1375 401.7737 963.73126 401.7737Q964.5125 401.7737 964.8875 401.35184Q965.27814 400.9456 965.27814 399.91434L965.27814 398.5081Q964.7469 399.1331 964.21564 399.41434Q963.3875 399.85184 962.4344 399.85184Q960.5594 399.85184 959.40314 398.2112Q958.59064 397.05496 958.59064 395.1487Q958.59064 392.9612 959.6375 391.8206Q960.7 390.67996 962.40314 390.67996Q963.4969 390.67996 964.2 391.05496Q964.91876 391.41434 965.52814 392.2737L965.52814 390.8987ZM962.15314 395.41434Q962.15314 396.42996 962.59064 396.91434Q963.02814 397.3987 963.73126 397.3987Q964.3875 397.3987 964.84064 396.8987Q965.29376 396.3987 965.29376 395.36746Q965.29376 394.35184 964.825 393.8206Q964.35626 393.2737 963.66876 393.2737Q962.98126 393.2737 962.5594 393.7737Q962.15314 394.2737 962.15314 395.41434ZM971.15314 387.3362L974.7469 387.3362L974.7469 400.22684L971.15314 400.22684L971.15314 387.3362ZM987.3875 396.4456L980.21564 396.4456Q980.325 397.30496 980.6844 397.72684Q981.2 398.3362 982.04376 398.3362Q982.575 398.3362 983.04376 398.0706Q983.34064 397.8987 983.66876 397.47684L987.1844 397.80496Q986.3875 399.2112 985.23126 399.8362Q984.09064 400.4456 981.96564 400.4456Q980.10626 400.4456 979.04376 399.92996Q977.98126 399.3987 977.27814 398.2581Q976.59064 397.11746 976.59064 395.5706Q976.59064 393.3831 977.98126 392.03934Q979.3875 390.67996 981.85626 390.67996Q983.85626 390.67996 985.0125 391.28934Q986.1844 391.8987 986.77814 393.05496Q987.3875 394.1956 987.3875 396.03934L987.3875 396.4456ZM983.7625 394.72684Q983.65314 393.6956 983.2 393.2581Q982.7469 392.80496 982.0125 392.80496Q981.15314 392.80496 980.6375 393.47684Q980.325 393.8987 980.23126 394.72684L983.7625 394.72684Z" fill-rule="nonzero"/><path fill="#9e9e9e" d="M939.04376 419.24246L935.4969 419.67996Q935.35626 418.92996 935.0125 418.6331Q934.6844 418.3206 934.21564 418.3206Q933.34064 418.3206 932.85626 419.1956Q932.4969 419.8362 932.34064 421.8987Q932.98126 421.2581 933.65314 420.9456Q934.325 420.6331 935.21564 420.6331Q936.9344 420.6331 938.1219 421.86746Q939.325 423.0862 939.325 424.97684Q939.325 426.2581 938.71564 427.3206Q938.1219 428.36746 937.04376 428.91434Q935.98126 429.4456 934.3719 429.4456Q932.4344 429.4456 931.2625 428.78934Q930.10626 428.1331 929.40314 426.6956Q928.7 425.24246 928.7 422.85184Q928.7 419.36746 930.16876 417.74246Q931.6375 416.11746 934.2469 416.11746Q935.77814 416.11746 936.66876 416.47684Q937.5594 416.8362 938.15314 417.5237Q938.7469 418.2112 939.04376 419.24246ZM932.46564 424.97684Q932.46564 426.0237 932.98126 426.61746Q933.5125 427.2112 934.27814 427.2112Q934.98126 427.2112 935.45 426.67996Q935.9344 426.1487 935.9344 425.0706Q935.9344 423.99246 935.4344 423.42996Q934.95 422.85184 934.21564 422.85184Q933.46564 422.85184 932.96564 423.3987Q932.46564 423.9456 932.46564 424.97684ZM951.16876 429.22684L940.41876 429.22684Q940.60626 427.6331 941.54376 426.24246Q942.48126 424.8362 945.0594 422.92996Q946.6375 421.7581 947.075 421.1487Q947.5125 420.53934 947.5125 419.99246Q947.5125 419.41434 947.075 418.99246Q946.6375 418.5706 945.98126 418.5706Q945.29376 418.5706 944.85626 419.0081Q944.41876 419.42996 944.27814 420.5237L940.6844 420.24246Q940.90314 418.72684 941.46564 417.8831Q942.02814 417.0237 943.04376 416.5706Q944.075 416.11746 945.8875 416.11746Q947.77814 416.11746 948.825 416.55496Q949.8719 416.97684 950.46564 417.8831Q951.075 418.7737 951.075 419.86746Q951.075 421.05496 950.3875 422.1331Q949.7 423.1956 947.8719 424.47684Q946.79376 425.22684 946.4344 425.5237Q946.075 425.8206 945.575 426.30496L951.16876 426.30496L951.16876 429.22684ZM953.04376 425.67996L956.85626 425.67996L956.85626 428.61746Q956.85626 430.24246 956.1844 431.17996Q955.5125 432.1331 953.8719 432.85184L953.04376 431.28934Q954.0594 430.80496 954.4344 430.3362Q954.825 429.86746 954.8719 429.22684L953.04376 429.22684L953.04376 425.67996ZM969.04376 419.24246L965.4969 419.67996Q965.35626 418.92996 965.0125 418.6331Q964.6844 418.3206 964.21564 418.3206Q963.34064 418.3206 962.85626 419.1956Q962.4969 419.8362 962.34064 421.8987Q962.98126 421.2581 963.65314 420.9456Q964.325 420.6331 965.21564 420.6331Q966.9344 420.6331 968.1219 421.86746Q969.325 423.0862 969.325 424.97684Q969.325 426.2581 968.71564 427.3206Q968.1219 428.36746 967.04376 428.91434Q965.98126 429.4456 964.3719 429.4456Q962.4344 429.4456 961.2625 428.78934Q960.10626 428.1331 959.40314 426.6956Q958.7 425.24246 958.7 422.85184Q958.7 419.36746 960.16876 417.74246Q961.6375 416.11746 964.2469 416.11746Q965.77814 416.11746 966.66876 416.47684Q967.5594 416.8362 968.15314 417.5237Q968.7469 418.2112 969.04376 419.24246ZM962.46564 424.97684Q962.46564 426.0237 962.98126 426.61746Q963.5125 427.2112 964.27814 427.2112Q964.98126 427.2112 965.45 426.67996Q965.9344 426.1487 965.9344 425.0706Q965.9344 423.99246 965.4344 423.42996Q964.95 422.85184 964.21564 422.85184Q963.46564 422.85184 962.96564 423.3987Q962.46564 423.9456 962.46564 424.97684ZM981.7625 416.11746L983.6219 416.11746L976.16876 429.8831L974.34064 429.8831L981.7625 416.11746ZM970.825 419.5081Q970.825 418.60184 971.21564 417.80496Q971.60626 416.99246 972.40314 416.55496Q973.21564 416.11746 974.3094 416.11746Q975.9344 416.11746 976.85626 417.03934Q977.79376 417.9612 977.79376 419.5081Q977.79376 421.05496 976.85626 421.97684Q975.9344 422.8987 974.3094 422.8987Q973.21564 422.8987 972.40314 422.4612Q971.60626 422.0237 971.21564 421.22684Q970.825 420.41434 970.825 419.5081ZM973.29376 419.5237Q973.29376 420.61746 973.6375 421.10184Q973.8719 421.42996 974.3094 421.42996Q974.7469 421.42996 974.96564 421.10184Q975.325 420.61746 975.325 419.5237Q975.325 418.4456 974.96564 417.9456Q974.7469 417.61746 974.3094 417.61746Q973.8719 417.61746 973.6375 417.9456Q973.29376 418.42996 973.29376 419.5237ZM980.10626 426.47684Q980.10626 425.5706 980.4969 424.7737Q980.8875 423.9612 981.6844 423.5237Q982.4969 423.0862 983.59064 423.0862Q985.21564 423.0862 986.1375 424.0081Q987.075 424.92996 987.075 426.47684Q987.075 428.0081 986.1375 428.9456Q985.21564 429.86746 983.59064 429.86746Q982.4969 429.86746 981.6844 429.42996Q980.8875 428.99246 980.4969 428.1956Q980.10626 427.3831 980.10626 426.47684ZM982.575 426.49246Q982.575 427.5862 982.9344 428.0706Q983.15314 428.3987 983.59064 428.3987Q984.02814 428.3987 984.2625 428.0706Q984.60626 427.5862 984.60626 426.49246Q984.60626 425.3987 984.2625 424.8987Q984.02814 424.5862 983.59064 424.5862Q983.15314 424.5862 982.9344 424.91434Q982.575 425.3987 982.575 426.49246Z" fill-rule="nonzero"/><path stroke="#757575" stroke-width="1.0" stroke-linecap="butt" d="M987.95 407.72684L832.95 407.72684L788.0043 407.72684" fill-rule="nonzero"/><path fill="#9e9e9e" d="M790.0043 407.72684C790.0043 406.62228 789.1088 405.72684 788.0043 405.72684C786.8997 405.72684 786.0043 406.62228 786.0043 407.72684C786.0043 408.83142 786.8997 409.72684 788.0043 409.72684C789.1088 409.72684 790.0043 408.83142 790.0043 407.72684" fill-rule="nonzero"/></svg>